<?xml version="1.0" encoding="utf-8"?>
<!-- Generator: Adobe Illustrator 27.2.0, SVG Export Plug-In . SVG Version: 6.00 Build 0)  -->
<svg version="1.1" id="Layer_1" xmlns="http://www.w3.org/2000/svg" xmlns:xlink="http://www.w3.org/1999/xlink" x="0px" y="0px"
	 viewBox="0 0 512 512" style="enable-background:new 0 0 512 512;" xml:space="preserve">
<style type="text/css">
	.st0{fill:#F95B0E;}
</style>
<g>
	<g transform="translate(0.000000,358.000000) scale(0.100000,-0.100000)">
		<path class="st0" d="M3154.3,3425.9c15.2-37.1-25.3-92.7-65.7-92.7c-79.2,0-106.2,80.9-42.1,124.7
			C3085.2,3484.9,3137.5,3469.8,3154.3,3425.9z M2244.2,3341.7c160.1-94.4,214-306.7,119.7-468.5c-109.5-185.4-350.5-225.8-514-87.6
			c-84.3,74.2-121.3,151.7-121.3,259.5c0,107.9,30.3,180.3,106.2,251.1C1951,3407.4,2102.7,3424.3,2244.2,3341.7z M3503.2,3382.1
			c55.6-25.3,82.6-87.6,62.4-141.6c-33.7-89.3-168.5-87.6-203.9,3.4c-27,72.5,8.4,128.1,97.7,155
			C3461,3400.7,3481.3,3392.2,3503.2,3382.1z M1359.5,3104c57.3-28.7,129.8-114.6,143.3-168.5c18.5-70.8-3.4-185.4-43.8-242.7
			c-43.8-60.7-151.7-116.3-225.8-118c-86,0-192.1,64-237.6,141.6C853.9,2959.1,1110,3232.1,1359.5,3104z M3034.6,3112.5
			c193.8-80.9,217.4-377.5,38.8-487.1c-126.4-77.5-257.9-59-355.6,48.9c-101.1,112.9-104.5,251.1-6.7,362.3
			C2797,3136.1,2915,3163,3034.6,3112.5z M4072.8,3092.2c107.9-72.5,116.3-212.3,15.2-301.7c-80.9-74.2-209-57.3-281.4,37.1
			c-59,79.2-27,212.3,65.7,269.6C3944.7,3141.1,4002,3139.4,4072.8,3092.2z M707.2,2583.3c67.4-32,111.2-104.5,111.2-185.4
			c0-48.9-13.5-75.8-57.3-119.7c-48.9-48.9-69.1-57.3-133.1-57.3c-86,0-148.3,40.4-180.3,116.3c-38.8,96.1,3.4,192.1,109.5,251.1
			C604.4,2615.3,643.2,2613.6,707.2,2583.3z M3600.9,2583.3c57.3-30.3,116.3-118,116.3-173.6c0-52.2-42.1-129.8-87.6-161.8
			c-20.2-15.2-70.8-27-111.2-27c-62.4,0-84.3,10.1-131.5,57.3c-43.8,43.8-57.3,70.8-57.3,118c0,84.3,38.8,151.7,104.5,183.7
			C3504.8,2615.3,3536.9,2615.3,3600.9,2583.3z M4543,2574.9c87.6-43.8,138.2-121.3,148.3-220.8c10.1-101.1-16.9-168.5-91-234.3
			c-175.3-153.4-434.8-48.9-458.4,183.7c-6.7,69.1,0,97.7,37.1,158.4C4254.8,2595.1,4409.9,2642.3,4543,2574.9z M2106,2470.4
			c25.3-42.1-5.1-87.6-62.4-94.4s-97.7,64-62.4,106.2C2010,2515.9,2080.8,2509.1,2106,2470.4z M1718.4,2404.6
			c77.5-60.7,37.1-200.6-57.3-200.6c-42.1,0-118,70.8-118,109.5c0,43.8,33.7,92.7,72.5,109.5
			C1667.9,2443.4,1667.9,2443.4,1718.4,2404.6z M1283.6,2129.9c43.8-43.8,57.3-70.8,57.3-118c0-185.4-202.2-276.4-325.3-148.3
			c-123,129.8-35.4,323.6,146.6,323.6C1212.8,2187.2,1238.1,2175.4,1283.6,2129.9z M363.4,1985c97.7-97.7-52.2-251.1-155-156.7
			c-67.4,60.7-13.5,190.4,79.2,190.4C311.2,2018.7,344.9,2003.5,363.4,1985z M3919.4,1985c67.4-67.4,18.5-185.4-75.8-185.4
			c-53.9,0-109.5,55.6-109.5,109.5c0,53.9,55.6,109.5,109.5,109.5C3867.2,2018.7,3900.9,2003.5,3919.4,1985z M4794.1,1776
			c82.6-57.3,153.4-190.4,153.4-286.5c-1.7-242.7-262.9-414.6-480.3-315.2c-264.6,119.7-279.8,485.4-25.3,621.9
			C4548.1,1851.9,4694.7,1843.4,4794.1,1776z M852.2,1631.1c118-84.3,158.4-203.9,111.2-328.6c-53.9-138.2-200.6-217.4-330.3-178.6
			c-143.3,42.1-239.3,207.3-202.2,342.1C483.1,1649.6,703.9,1735.6,852.2,1631.1z M208.4,1577.2c32-32,23.6-94.4-15.2-114.6
			c-42.1-23.6-74.2-13.5-97.7,30.3C60.1,1558.6,156.1,1629.4,208.4,1577.2z M4010.4,1570.4c15.2-13.5,27-37.1,27-48.9
			c0-27-45.5-75.8-70.8-75.8c-27,0-80.9,52.2-80.9,77.5c0,28.7,47.2,74.2,75.8,74.2C3973.4,1597.4,3997,1585.6,4010.4,1570.4z
			 M4514.3,899.7c155-65.7,227.5-261.2,144.9-396c-99.4-161.8-279.8-198.9-412.9-82.6c-134.8,119.7-146.6,279.8-27,407.8
			C4303.7,918.2,4411.5,943.5,4514.3,899.7z M623,871C744.3,837.3,869,670.5,869,542.4c0-69.1-37.1-161.8-87.6-219.1
			C616.2,134.5,333.1,164.9,215.1,384c-32,62.4-38.8,94.4-33.7,178.6c8.4,134.8,67.4,224.1,187.1,284.8
			C461.2,892.9,521.9,899.7,623,871z M1212.8,549.1c21.9-32,23.6-42.1,3.4-72.5c-43.8-65.7-128.1-43.8-128.1,32
			C1088.1,586.2,1169,613.2,1212.8,549.1z M4999.7,569.3c62.4-33.7,25.3-146.6-45.5-131.5c-15.2,3.4-38.8,20.2-50.6,38.8
			c-20.2,30.3-18.5,40.4,3.4,72.5C4935.7,591.3,4952.5,594.6,4999.7,569.3z M1357.8,195.2c42.1-47.2,42.1-80.9-1.7-138.2
			c-62.4-79.2-183.7-38.8-183.7,60.7C1172.4,223.9,1287,271,1357.8,195.2z M4054.3,207c70.8-35.4,101.1-89.3,101.1-173.6
			c0-62.4-10.1-84.3-57.3-131.5c-45.5-45.5-70.8-57.3-123-57.3c-64,0-129.8,32-168.5,84.3c-59,79.2-27,212.3,65.7,269.6
			C3938,239,3988.5,240.7,4054.3,207z M4913.8,198.6c43.8-43.8,42.1-101.1,0-148.3c-67.4-70.8-185.4-28.7-185.4,67.4
			C4728.4,222.2,4841.3,271,4913.8,198.6z M838.7-47.5c97.7-48.9,161.8-188.8,139.9-303.4c-15.2-86-129.8-202.2-215.7-217.4
			c-97.7-18.5-173.6,3.4-246.1,72.5c-123,116.3-126.4,278.1-10.1,392.7C601.1-10.4,722.4,9.8,838.7-47.5z M3516.6-190.7
			c47.2-25.3,69.1-91,47.2-139.9c-40.4-89.3-166.8-89.3-200.6-1.7c-23.6,62.4-21.9,72.5,25.3,118
			C3432.4-168.8,3466.1-162.1,3516.6-190.7z M1715.1-222.8c89.3-69.1,102.8-212.3,25.3-281.4c-82.6-75.8-134.8-87.6-220.8-47.2
			c-67.4,32-111.2,104.5-111.2,185.4c0,48.9,13.5,75.8,57.3,119.7c48.9,48.9,69.1,57.3,133.1,57.3
			C1647.6-189,1688.1-200.8,1715.1-222.8z M4623.9-237.9C4725-339,4698-487.3,4570-549.7c-60.7-28.7-72.5-30.3-133.1-8.4
			c-118,42.1-163.5,148.3-112.9,268c27,65.7,89.3,99.4,180.3,101.1C4559.9-189,4585.1-199.2,4623.9-237.9z M3150.9-377.8
			c23.6-38.8-5.1-87.6-55.6-94.4c-70.8-10.1-112.9,64-65.7,111.2C3058.2-332.3,3127.3-342.4,3150.9-377.8z M2311.6-569.9
			c74.2-35.4,134.8-109.5,160.1-192.1c57.3-188.8-144.9-389.3-338.7-337.1c-200.6,53.9-279.8,286.5-148.3,444.9
			C2072.3-546.3,2195.4-516,2311.6-569.9z M3993.6-566.6c77.5-32,158.4-136.5,170.2-220.8c21.9-136.5-72.5-274.7-210.7-311.8
			c-193.8-52.2-394.4,150-338.7,340.4C3665-590.2,3838.5-502.5,3993.6-566.6z M3186.3-693c264.6-119.7,279.8-485.4,25.3-621.9
			c-106.2-55.6-252.8-47.2-352.2,20.2c-82.6,57.3-153.4,190.4-153.4,286.5C2707.7-767.1,2970.6-593.5,3186.3-693z M1283.6-768.8
			c178.6-178.6-82.6-443.2-264.6-269.6c-129.8,123-40.4,326.9,143.3,326.9C1212.8-711.5,1238.1-723.3,1283.6-768.8z M1718.4-1168.2
			c43.8-33.7,59-102.8,30.3-143.3c-15.2-21.9-77.5-57.3-104.5-57.3c-32,0-101.1,80.9-101.1,118c0,40.4,70.8,118,106.2,118
			C1662.8-1132.8,1693.1-1148,1718.4-1168.2z M2099.3-1333.4c35.4-69.1-35.4-136.5-97.7-92.7c-64,43.8-37.1,124.7,42.1,124.7
			C2063.9-1301.4,2089.2-1316.5,2099.3-1333.4z"/>
	</g>
</g>
</svg>
