<?xml version="1.0" encoding="utf-8"?>
<!-- Generator: Adobe Illustrator 27.2.0, SVG Export Plug-In . SVG Version: 6.00 Build 0)  -->
<svg version="1.1" id="Layer_1" xmlns="http://www.w3.org/2000/svg" xmlns:xlink="http://www.w3.org/1999/xlink" x="0px" y="0px"
	 viewBox="0 0 1116 308" style="enable-background:new 0 0 1116 308;" xml:space="preserve">
<style type="text/css">
	.st0{fill:#F95B0E;}
</style>
<g>
	<g transform="translate(0.000000,358.000000) scale(0.100000,-0.100000)">
		<path class="st0" d="M1877.3,3452.8c9-22-15-55-39-55c-47,0-63,48-25,74C1836.3,3487.8,1867.3,3478.8,1877.3,3452.8z
			 M1337.3,3402.8c95-56,127-182,71-278c-65-110-208-134-305-52c-50,44-72,90-72,154s18,107,63,149
			C1163.3,3441.8,1253.3,3451.8,1337.3,3402.8z M2084.3,3426.8c33-15,49-52,37-84c-20-53-100-52-121,2c-16,43,5,76,58,92
			C2059.3,3437.8,2071.3,3432.8,2084.3,3426.8z M812.3,3261.8c34-17,77-68,85-100c11-42-2-110-26-144c-26-36-90-69-134-70
			c-51,0-114,38-141,84C512.3,3175.8,664.3,3337.8,812.3,3261.8z M1806.3,3266.8c115-48,129-224,23-289c-75-46-153-35-211,29
			c-60,67-62,149-4,215C1665.3,3280.8,1735.3,3296.8,1806.3,3266.8z M2422.3,3254.8c64-43,69-126,9-179c-48-44-124-34-167,22
			c-35,47-16,126,39,160C2346.3,3283.8,2380.3,3282.8,2422.3,3254.8z M425.3,2952.8c40-19,66-62,66-110c0-29-8-45-34-71
			c-29-29-41-34-79-34c-51,0-88,24-107,69c-23,57,2,114,65,149C364.3,2971.8,387.3,2970.8,425.3,2952.8z M2142.3,2952.8
			c34-18,69-70,69-103c0-31-25-77-52-96c-12-9-42-16-66-16c-37,0-50,6-78,34c-26,26-34,42-34,70c0,50,23,90,62,109
			C2085.3,2971.8,2104.3,2971.8,2142.3,2952.8z M2701.3,2947.8c52-26,82-72,88-131c6-60-10-100-54-139c-104-91-258-29-272,109
			c-4,41,0,58,22,94C2530.3,2959.8,2622.3,2987.8,2701.3,2947.8z M1255.3,2885.8c15-25-3-52-37-56s-58,38-37,63
			C1198.3,2912.8,1240.3,2908.8,1255.3,2885.8z M1025.3,2846.8c46-36,22-119-34-119c-25,0-70,42-70,65c0,26,20,55,43,65
			C995.3,2869.8,995.3,2869.8,1025.3,2846.8z M4880,2630v-190h-275h-275v-540v-540h-40h-40v567.1V2520h286.2H4820v120l-2.7,110h-508
			H3770v-40v-40h495h455v-40v-40h-490h-540v110v120h620h570V2630z M7752.3,2282c157-295,289-536,294-535c4,1,78,132,165,291l156,290
			l85-561l85-562l-34-3c-19-2-35-2-37,0s-33,199-70,438c-36,239-68,436-70,438c-4,5-31-43-165-293c-62-115-114-211-115-213
			c-1-1-134,246-295,550c-162,304-311,586-333,626l-39,72h44h43L7752.3,2282z M8735.3,2027c66-435,121-800,124-809c4-16-6-18-117-18
			c-90,0-121,3-121,13c0,6-43,287-94,622l-93,610l28,55c15,30,29,53,29,50c1-3,45-288,98-635l98-630l43-3l43-3l-6,38
			c-3,21-51,335-106,698s-103,675-106,693c-6,28-10,32-38,32c-31,0-33-4-245-405c-118-223-218-405-221-405s-14,16-25,36
			c-17,32-18,37-3,62c18,32,232,434,342,645l77,147h87h87L8735.3,2027z M9966.3,2410l198-410l-18-40c-10-22-21-40-25-40
			c-3,0-94,183-202,408l-195,407l-137,3l-137,3l19-38c10-21,160-332,333-690c173-359,317-653,320-653s33,57,66,127
			c33,71,192,399,353,731l293,602h129c100,0,129-3,125-12c-3-7-115-240-250-518s-308-635-385-795l-141-290l-40-3c-23-2-41,0-41,5
			c0,4,166,350,368,768l369,760l-35,3c-19,2-39,1-46-1c-6-3-178-349-381-771c-253-524-375-766-385-766c-9,0-31,31-54,78
			c-82,164-736,1530-736,1536c0,3,98,6,218,6h218L9966.3,2410z M10738.3,2808c-22-57-611-1268-616-1268c-5,1-526,1074-540,1111
			c-2,6,15,9,40,7l43-3l226-467c124-257,228-466,233-465c4,1,125,248,270,549l262,548h44C10730.3,2820,10742.3,2816,10738.3,2808z
			 M5450,2045v-765h323c177,0,349,4,382,9c247,37,367,195,353,464c-6,106-24,157-74,208l-35,36l25,37c54,80,70,141,71,271
			c0,103-3,129-24,183c-29,75-90,148-158,184c-94,51-147,58-442,58h-271l10-269.2V2190h258.3h261l26,26.8c49,46,43,148-11,190
			c-24,19-204,23.2-204,23.2H5760v-80v-80h-35h-35v119.4V2510h204c226,0,252-5,308-58.3c47-45.2,61-87.4,56-168.9
			c-4-68.4-21-100.5-72-138.7c-26-20.1-42-21.1-342-24.1l-314-3v347.4V2810l327.6-4c354.6-5,398.5-11,490.4-64.9
			c148.8-86.9,220.7-229.7,220.7-437.5c0-105.9-14-175.8-50.9-250.7l-22-45.9l31-61.9c42.9-85.9,54.9-136.8,53.9-246.7
			c0-185.8-66.9-322.6-200.8-407.5c-118.9-76.9-226.7-90.9-680.2-90.9H5370v805v805h40h40V2045z M7676.3,2086
			c198-373,364-679,370-680c5,0,57,90,115,201s109,205,112,208c3,4,9-22,13-57l6-63l-122-232c-67-128-123-232-125-230
			c-1,1-158,297-349,657c-190,360-351,659-356,665c-6,5-9,5-9-3c0-6-43-291-95-633c-52-341-95-625-95-630s52-9,120-9
			c116,0,120,1,125,23c2,12,18,114,35,227c41,282,35,265,71,203l29-51l-37-241l-37-241h-199h-199l6,33c8,44,236,1551,236,1563
			C7292.3,2810,7292.3,2810,7676.3,2086z M767.3,2683.8c26-26,34-42,34-70c0-110-120-164-193-88c-73,77-21,192,87,192
			C725.3,2717.8,740.3,2710.8,767.3,2683.8z M6231,2631c138-62,212-211,188-378c-12-86-46-152-107-207l-50-44l55-49
			c76-66,106-132,111-245c3-70,0-95-18-143c-26-69-94-143-165-177c-50-25-53-25-382-28l-333-3v266v267l303-4c294-3,303-4,342-26
			c59-34,86-79,92-154c7-87-22-143-92-178c-48-24-59-25-267-28l-218-4v118v116h35h35v-75v-75h179.3c0,0,180-0.2,209,17.8
			c68,41,63,157-7,192c-31,16-67,18-288,20.2H5600l10-189.2V1430h271.3c306,2.8,326,5.8,392,65.8c59,53,82,105,83,182
			c0,123-47,214-139,263c-39,21-53,22-363,19.2H5530v46.1v33.9l318,3c272,3,322,6,353,20c156,72.9,196,297.4,77,432.2
			c-71,80.9-87,84.8-355,84.8h-233v39v41l248-4C6162,2652,6189,2650,6231,2631z M221.3,2597.8c58-58-31-149-92-93
			c-40,36-8,113,47,113C190.3,2617.8,210.3,2608.8,221.3,2597.8z M2331.3,2597.8c40-40,11-110-45-110c-32,0-65,33-65,65s33,65,65,65
			C2300.3,2617.8,2320.3,2608.8,2331.3,2597.8z M4170,1900v-620h120h120v540v540h40h40v-580v-580h-195h-195v620v620h-180h-230v40v40
			h265h215V1900z M2850.3,2473.8c49-34,91-113,91-170c-1-144-156-246-285-187c-157,71-166,288-15,369
			C2704.3,2518.8,2791.3,2513.8,2850.3,2473.8z M511.3,2387.8c70-50,94-121,66-195c-32-82-119-129-196-106c-85,25-142,123-120,203
			C292.3,2398.8,423.3,2449.8,511.3,2387.8z M129.3,2355.8c19-19,14-56-9-68c-25-14-44-8-58,18
			C41.3,2344.8,98.3,2386.8,129.3,2355.8z M2385.3,2351.8c9-8,16-22,16-29c0-16-27-45-42-45c-16,0-48,31-48,46c0,17,28,44,45,44
			C2363.3,2367.8,2377.3,2360.8,2385.3,2351.8z M7685.3,1725c152-285,276-521,276-523s-19-2-42,0l-43,3l-227,429
			c-125,237-229,423-232,415c-2-7-28-168-57-356l-53-343h-39c-36,0-39,2-34,23c3,12,35,218,72,457c36,239,69,442,71,450
			c4,11,9,9,19-10C7403.3,2256,7533.3,2011,7685.3,1725z M2684.3,1953.8c92-39,135-155,86-235c-59-96-166-118-245-49
			c-80,71-87,166-16,242C2559.3,1964.8,2623.3,1979.8,2684.3,1953.8z M375.3,1936.8c72-20,146-119,146-195c0-41-22-96-52-130
			c-98-112-266-94-336,36c-19,37-23,56-20,106c5,80,40,133,111,169C279.3,1949.8,315.3,1953.8,375.3,1936.8z M725.3,1745.8
			c13-19,14-25,2-43c-26-39-76-26-76,19C651.3,1767.8,699.3,1783.8,725.3,1745.8z M2972.3,1757.8c37-20,15-87-27-78
			c-9,2-23,12-30,23c-12,18-11,24,2,43C2934.3,1770.8,2944.3,1772.8,2972.3,1757.8z M811.3,1535.8c25-28,25-48-1-82
			c-37-47-109-23-109,36C701.3,1552.8,769.3,1580.8,811.3,1535.8z M2411.3,1542.8c42-21,60-53,60-103c0-37-6-50-34-78
			c-27-27-42-34-73-34c-38,0-77,19-100,50c-35,47-16,126,39,160C2342.3,1561.8,2372.3,1562.8,2411.3,1542.8z M2921.3,1537.8
			c26-26,25-60,0-88c-40-42-110-17-110,40C2811.3,1551.8,2878.3,1580.8,2921.3,1537.8z M503.3,1391.8c58-29,96-112,83-180
			c-9-51-77-120-128-129c-58-11-103,2-146,43c-73,69-75,165-6,233C362.3,1413.8,434.3,1425.8,503.3,1391.8z M2092.3,1306.8
			c28-15,41-54,28-83c-24-53-99-53-119-1c-14,37-13,43,15,70C2042.3,1319.8,2062.3,1323.8,2092.3,1306.8z M1023.3,1287.8
			c53-41,61-126,15-167c-49-45-80-52-131-28c-40,19-66,62-66,110c0,29,8,45,34,71c29,29,41,34,79,34
			C983.3,1307.8,1007.3,1300.8,1023.3,1287.8z M2749.3,1278.8c60-60,44-148-32-185c-36-17-43-18-79-5c-70,25-97,88-67,159
			c16,39,53,59,107,60C2711.3,1307.8,2726.3,1301.8,2749.3,1278.8z M1875.3,1195.8c14-23-3-52-33-56c-42-6-67,38-39,66
			C1820.3,1222.8,1861.3,1216.8,1875.3,1195.8z M1377.3,1081.8c44-21,80-65,95-114c34-112-86-231-201-200c-119,32-166,170-88,264
			C1235.3,1095.8,1308.3,1113.8,1377.3,1081.8z M2375.3,1083.8c46-19,94-81,101-131c13-81-43-163-125-185c-115-31-234,89-201,202
			C2180.3,1069.8,2283.3,1121.8,2375.3,1083.8z M1896.3,1008.8c157-71,166-288,15-369c-63-33-150-28-209,12c-49,34-91,113-91,170
			C1612.3,964.8,1768.3,1067.8,1896.3,1008.8z M767.3,963.8c106-106-49-263-157-160c-77,73-24,194,85,194
			C725.3,997.8,740.3,990.8,767.3,963.8z M1025.3,726.8c26-20,35-61,18-85c-9-13-46-34-62-34c-19,0-60,48-60,70c0,24,42,70,63,70
			C992.3,747.8,1010.3,738.8,1025.3,726.8z M1251.3,628.8c21-41-21-81-58-55c-38,26-22,74,25,74
			C1230.3,647.8,1245.3,638.8,1251.3,628.8z"/>
	</g>
</g>
</svg>
