<?xml version="1.0" encoding="utf-8"?>
<!-- Generator: Adobe Illustrator 27.2.0, SVG Export Plug-In . SVG Version: 6.00 Build 0)  -->
<svg version="1.1" id="svg2" xmlns="http://www.w3.org/2000/svg" xmlns:xlink="http://www.w3.org/1999/xlink" x="0px" y="0px"
	 viewBox="0 0 151 137" style="enable-background:new 0 0 151 137;" xml:space="preserve">

<g id="layer1">
	<path id="path2417" class="st0" d="M67.7,127.8c-3-3.4-10.6-10.1-16.9-14.8C32.3,99,29.7,97,22.2,90C8.4,77.3,2.5,64.5,2.5,47.1
		c0-8.5,0.6-11.8,3-16.8c4-8.5,10-14.8,17.6-18.6c5.4-2.7,8-3.9,17-4c9.4-0.1,11.4,1,16.9,4.1C63.7,15.4,70.6,23.3,72,29l0.9,3.5
		l2.2-4.8c12.3-27,51.6-26.6,65.3,0.7c4.3,8.6,4.8,27.1,1,37.5c-5,13.6-14.5,23.9-36.3,39.7c-14.3,10.4-30.5,26.1-31.6,28.3
		C72.2,136.4,73.5,134.2,67.7,127.8z"/>
	<g id="g2221" transform="translate(129.28571,-64.285714)">
	</g>
</g>
</svg>
