<?xml version="1.0" encoding="utf-8"?>
<!-- Generator: Adobe Illustrator 27.2.0, SVG Export Plug-In . SVG Version: 6.00 Build 0)  -->
<svg version="1.1" id="ƒŒƒCƒ_x201E__x5B__x5F_1"
	 xmlns="http://www.w3.org/2000/svg" x="0px" y="0px" viewBox="0 0 238.7 234.6"
	 style="enable-background:new 0 0 238.7 234.6;" xml:space="preserve">
<path d="M140.9,80.1c-1.4,0-2.7-1-3-2.4c-0.8-4.1-2.1-8.1-3.9-11.8c-1.8-3.7-4-7.2-6.6-10.3c-5.2-6.3-12-11.3-19.5-14.4
	c-1.5-0.6-2.3-2.4-1.6-3.9c0.6-1.5,2.4-2.3,3.9-1.6c8.5,3.5,16,9.1,21.9,16.1c2.9,3.5,5.4,7.4,7.4,11.6c2,4.2,3.5,8.7,4.4,13.3
	c0.3,1.6-0.7,3.2-2.4,3.5C141.3,80.1,141.1,80.1,140.9,80.1z"/>
<path d="M225.3,208l-55.5-55.5c-2.1-2.1-4.9-3.2-7.8-3.2c-1.2,0-2.3,0.2-3.4,0.5l-9.2-9.2c2.3-2.6,4.4-5.4,6.4-8.3
	c2.9-4.3,5.4-8.9,7.4-13.7c2.1-4.9,3.6-10,4.7-15.2c1.1-5.3,1.6-10.8,1.6-16.3c0-5.5-0.6-10.9-1.6-16.3c-1.1-5.2-2.6-10.3-4.7-15.2
	c-2-4.8-4.5-9.4-7.4-13.7c-2.9-4.3-6.2-8.3-9.8-11.9c-3.6-3.6-7.7-7-11.9-9.8c-4.3-2.9-8.9-5.4-13.7-7.4c-4.9-2.1-10-3.6-15.2-4.7
	c-5.3-1.1-10.8-1.6-16.3-1.6c-5.5,0-10.9,0.6-16.3,1.6c-5.2,1.1-10.3,2.6-15.2,4.7c-4.8,2-9.4,4.5-13.7,7.4
	c-4.3,2.9-8.3,6.2-11.9,9.8c-3.6,3.6-7,7.7-9.8,11.9c-2.9,4.3-5.4,8.9-7.4,13.7c-2.1,4.9-3.6,10-4.7,15.2
	c-1.1,5.3-1.6,10.8-1.6,16.3c0,5.5,0.6,10.9,1.6,16.3c1.1,5.2,2.6,10.3,4.7,15.2c2,4.8,4.5,9.4,7.4,13.7c2.9,4.3,6.2,8.3,9.8,11.9
	c3.6,3.6,7.7,7,11.9,9.8c4.3,2.9,8.9,5.4,13.7,7.4c4.9,2.1,10,3.6,15.2,4.7c5.3,1.1,10.8,1.6,16.3,1.6c5.5,0,10.9-0.6,16.3-1.6
	c5.2-1.1,10.3-2.6,15.2-4.7c4.8-2,9.4-4.5,13.7-7.4c2.9-1.9,5.6-4.1,8.3-6.4l9.2,9.2c-0.4,1.1-0.5,2.2-0.5,3.4
	c0,2.9,1.2,5.8,3.2,7.8l55.5,55.5c2.1,2.1,4.9,3.2,7.8,3.2s5.8-1.2,7.8-3.2c2.1-2.1,3.2-4.9,3.2-7.8S227.4,210.1,225.3,208z
	 M125.6,141.6c-3.5,2.4-7.2,4.4-11.1,6c-8.1,3.4-16.7,5.1-25.5,5.1s-17.4-1.7-25.5-5.1c-3.9-1.6-7.6-3.7-11.1-6
	c-3.5-2.3-6.7-5-9.7-8c-3-3-5.7-6.2-8-9.7c-2.4-3.5-4.4-7.2-6-11.1c-3.4-8.1-5.1-16.7-5.1-25.5s1.7-17.4,5.1-25.5
	c1.6-3.9,3.7-7.6,6-11.1c2.3-3.5,5-6.7,8-9.7c3-3,6.2-5.7,9.7-8c3.5-2.4,7.2-4.4,11.1-6c8.1-3.4,16.7-5.1,25.5-5.1
	s17.4,1.7,25.5,5.1c3.9,1.6,7.6,3.7,11.1,6c3.5,2.3,6.7,5,9.7,8c3,3,5.7,6.2,8,9.7c2.4,3.5,4.4,7.2,6,11.1
	c3.4,8.1,5.1,16.7,5.1,25.5s-1.7,17.4-5.1,25.5c-1.6,3.9-3.7,7.6-6,11.1c-2.3,3.5-5,6.7-8,9.7C132.3,136.6,129,139.3,125.6,141.6z"
	/>
</svg>
